<svg width="512" height="512" viewBox="0 0 512 512" fill="none" xmlns="http://www.w3.org/2000/svg">
  <rect width="512" height="512" rx="80" fill="#6366f1"/>
  <g transform="translate(80, 80)">
    <path d="M176 80 C120 80 80 120 80 176 C80 210 96 240 122 258 C110 270 104 286 104 304 C104 340 132 368 168 368 L176 368 L176 80Z" fill="white" opacity="0.95"/>
    <path d="M176 80 C232 80 272 120 272 176 C272 210 256 240 230 258 C242 270 248 286 248 304 C248 340 220 368 184 368 L176 368 L176 80Z" fill="white" opacity="0.85"/>
    <line x1="176" y1="80" x2="176" y2="368" stroke="#6366f1" stroke-width="4" opacity="0.3"/>
    <circle cx="120" cy="160" r="8" fill="#a5b4fc"/>
    <circle cx="100" cy="220" r="6" fill="#a5b4fc"/>
    <circle cx="130" cy="280" r="7" fill="#a5b4fc"/>
    <line x1="120" y1="160" x2="100" y2="220" stroke="#a5b4fc" stroke-width="2"/>
    <line x1="100" y1="220" x2="130" y2="280" stroke="#a5b4fc" stroke-width="2"/>
    <circle cx="232" cy="160" r="8" fill="#c7d2fe"/>
    <circle cx="252" cy="220" r="6" fill="#c7d2fe"/>
    <circle cx="222" cy="280" r="7" fill="#c7d2fe"/>
    <line x1="232" y1="160" x2="252" y2="220" stroke="#c7d2fe" stroke-width="2"/>
    <line x1="252" y1="220" x2="222" y2="280" stroke="#c7d2fe" stroke-width="2"/>
    <line x1="120" y1="160" x2="232" y2="160" stroke="white" stroke-width="1.5" opacity="0.4"/>
    <line x1="100" y1="220" x2="252" y2="220" stroke="white" stroke-width="1.5" opacity="0.4"/>
  </g>
</svg>